<?xml version="1.0" encoding="UTF-8" standalone="no"?>
<svg
   xmlns:dc="http://purl.org/dc/elements/1.1/"
   xmlns:cc="http://creativecommons.org/ns#"
   xmlns:rdf="http://www.w3.org/1999/02/22-rdf-syntax-ns#"
   xmlns:svg="http://www.w3.org/2000/svg"
   xmlns="http://www.w3.org/2000/svg"
   xmlns:sodipodi="http://sodipodi.sourceforge.net/DTD/sodipodi-0.dtd"
   xmlns:inkscape="http://www.inkscape.org/namespaces/inkscape"
   width="32"
   height="16"
   version="1.1"
   id="svg122"
   sodipodi:docname="media-playback-pp.svg"
   inkscape:version="1.0.2 (e86c870879, 2021-01-15)">
  <metadata
     id="metadata128">
    <rdf:RDF>
      <cc:Work
         rdf:about="">
        <dc:format>image/svg+xml</dc:format>
        <dc:type
           rdf:resource="http://purl.org/dc/dcmitype/StillImage" />
        <dc:title></dc:title>
      </cc:Work>
    </rdf:RDF>
  </metadata>
  <defs
     id="defs126" />
  <sodipodi:namedview
     pagecolor="#ffffff"
     bordercolor="#666666"
     borderopacity="1"
     objecttolerance="10"
     gridtolerance="10"
     guidetolerance="10"
     inkscape:pageopacity="0"
     inkscape:pageshadow="2"
     inkscape:window-width="1850"
     inkscape:window-height="960"
     id="namedview124"
     showgrid="false"
     inkscape:zoom="19.578019"
     inkscape:cx="1.949465"
     inkscape:cy="6.8431077"
     inkscape:window-x="1950"
     inkscape:window-y="55"
     inkscape:window-maximized="0"
     inkscape:current-layer="svg122" />
  <g
     id="g153"
     transform="translate(1.4553775,-7.3913166e-4)">
    <g
       color="#000000"
       fill="#PLEASECHANGEME"
       id="g120">
      <path
         d="m 5.022,3 a 1,1 0 0 0 -1.02,1 v 8 a 1,1 0 0 0 1.496,0.87 l 6.999,-4 a 1,1 0 0 0 0,-1.74 l -6.999,-4 A 1,1 0 0 0 5.022,3 Z M 6.002,5.725 9.982,8 6.002,10.275 Z"
         style="line-height:normal;font-variant-ligatures:normal;font-variant-position:normal;font-variant-caps:normal;font-variant-numeric:normal;font-variant-alternates:normal;font-feature-settings:normal;text-indent:0;text-align:start;text-decoration:none;text-decoration-line:none;text-decoration-style:solid;text-decoration-color:#000000;text-transform:none;text-orientation:mixed;shape-padding:0;isolation:auto;mix-blend-mode:normal;marker:none"
         font-weight="400"
         font-family="sans-serif"
         overflow="visible"
         id="path116" />
      <path
         d="m 5.002,12 h -1 v 1 h 1 z m 0,-9 h -1 v 1 h 1 z m 0,1 L 12,8 5.002,12 Z"
         style="marker:none"
         overflow="visible"
         id="path118" />
    </g>
  </g>
  <path
     d="m 16.141731,12.930864 h 3.973593 V 3.0691355 h -3.973593 z m 6.622654,0 h 3.973592 V 3.0691355 h -3.973592 z"
     style="stroke-width:1.2778;marker:none"
     overflow="visible"
     color="#000000"
     fill="#PLEASECHANGEME"
     id="path106" />
</svg>
